<?xml version="1.0" encoding="UTF-8" standalone="no"?><!DOCTYPE svg PUBLIC "-//W3C//DTD SVG 1.1//EN" "http://www.w3.org/Graphics/SVG/1.1/DTD/svg11.dtd"><svg width="100%" height="100%" viewBox="0 0 68 14" version="1.1" xmlns="http://www.w3.org/2000/svg" xmlns:xlink="http://www.w3.org/1999/xlink" xml:space="preserve" style="fill-rule:evenodd;clip-rule:evenodd;stroke-linejoin:round;stroke-miterlimit:1.41421;"><rect id="ArtBoard1" x="0" y="0" width="67.113" height="13.58" style="fill:none;"/><path d="M20.29,12.493l9.952,0.185l3.6,-8.278l1.879,0l3.333,8.093l10.724,0l2.21,-8.59l1.362,-0.644l0.283,-2.342l-17.555,0.745l-2.228,0.04l-17.563,-0.869l0.124,1.962l1.347,1.108l2.532,8.59Z" style="fill:#0d0d0d;"/><path d="M19.325,2.94c4.302,-1.12 8.357,-1.047 13.02,0.217c-0.545,3.095 -1.287,5.747 -2.993,8.25c-2.547,0.487 -5.293,0.216 -8.057,-0.216c-1.067,-2.936 -1.784,-5.358 -1.97,-8.251Z" style="fill:#737f70;"/><path d="M37.792,2.94c4.302,-1.12 8.357,-1.047 13.02,0.217c-0.545,3.095 -1.287,5.747 -2.993,8.25c-2.547,0.487 -5.293,0.216 -8.057,-0.216c-1.067,-2.936 -1.784,-5.358 -1.97,-8.251Z" style="fill:#737f70;"/><path d="M25.657,2.466l0.048,0.001l0.049,0l0.048,0.002l0.049,0.001l0.049,0.002l0.048,0.001l0.049,0.003l0.049,0.002l0.05,0.003l0.049,0.003l0.049,0.003l0.049,0.004l0.05,0.004l0.049,0.004l0.05,0.004l0.05,0.005l0.05,0.005l0.049,0.005l0.05,0.006l0.05,0.006l0.05,0.006l0.051,0.006l0.05,0.007l0.05,0.007l0.05,0.007l0.051,0.007l0.05,0.008l0.051,0.008l0.05,0.009l0.051,0.008l0.051,0.009l0.05,0.009l0.051,0.01l0.051,0.009l0.051,0.01l0.051,0.011l0.05,0.01l0.047,0.01l0.004,0.001l0.051,0.012l0.051,0.012l0.051,0.012l0.051,0.012l0.051,0.013l0.051,0.013l0.051,0.013l0.052,0.014l0.051,0.014l0.051,0.014l0.051,0.015l0.051,0.014l0.051,0.015l0.051,0.015l0.051,0.016l0.052,0.016l0.051,0.016l0.051,0.016l0.051,0.017l0.051,0.017l0.051,0.017l0.052,0.018l0.051,0.018l0.051,0.018l0.051,0.018l0.051,0.019l0.051,0.018l0.051,0.02l0.051,0.019l0.051,0.02l0.051,0.02l0.051,0.02l0.051,0.021l0.051,0.021l0.051,0.021l0.05,0.021l0.051,0.022l0.051,0.022l0.05,0.022l0.051,0.023l0.051,0.023l0.05,0.023l0.051,0.023l0.05,0.024l0.051,0.024l0.05,0.024l0.05,0.025l0.05,0.025l0.05,0.025l0.051,0.025l0.01,0.006l0.04,0.02l-0.042,-0.014l-0.012,-0.003l-0.053,-0.018l-0.054,-0.016l-0.053,-0.017l-0.053,-0.016l-0.054,-0.016l-0.053,-0.016l-0.053,-0.015l-0.053,-0.016l-0.053,-0.014l-0.053,-0.015l-0.054,-0.014l-0.053,-0.014l-0.053,-0.014l-0.053,-0.013l-0.052,-0.013l-0.053,-0.013l-0.053,-0.012l-0.053,-0.012l-0.052,-0.012l-0.053,-0.012l-0.053,-0.011l-0.052,-0.011l-0.053,-0.011l-0.052,-0.01l-0.052,-0.011l-0.052,-0.01l-0.053,-0.009l-0.052,-0.01l-0.052,-0.009l-0.052,-0.008l-0.051,-0.009l-0.052,-0.008l-0.052,-0.008l-0.052,-0.008l-0.051,-0.007l-0.051,-0.007l-0.052,-0.007l-0.051,-0.007l-0.051,-0.006l-0.051,-0.006l-0.051,-0.006l-0.051,-0.005l-0.051,-0.005l-0.05,-0.005l-0.051,-0.005l-0.05,-0.004l-0.051,-0.004l-0.05,-0.004l-0.05,-0.004l-0.05,-0.003l-0.004,0l-0.046,-0.004l-0.049,-0.003l-0.05,-0.003l-0.049,-0.003l-0.05,-0.002l-0.049,-0.003l-0.049,-0.002l-0.049,-0.001l-0.049,-0.002l-0.048,-0.001l-0.049,-0.001l-0.048,-0.001l-0.048,0l-0.048,-0.001l-0.048,0l-0.048,0.001l-0.048,0l-0.047,0.001l-0.048,0.001l-0.047,0.001l-0.047,0.002l-0.047,0.002l-0.047,0.002l-0.046,0.002l-0.047,0.003l-0.046,0.002l-0.046,0.003l-0.046,0.004l-0.046,0.003l-0.045,0.004l-0.046,0.004l-0.045,0.004l-0.045,0.005l-0.045,0.004l-0.044,0.005l-0.045,0.005l-0.044,0.006l-0.044,0.006l-0.044,0.005l-0.044,0.006l-0.043,0.007l-0.044,0.006l-0.043,0.007l-0.043,0.007l-0.042,0.007l-0.043,0.008l-0.042,0.008l-0.042,0.008l-0.042,0.008l-0.042,0.008l-0.041,0.009l-0.041,0.009l-0.041,0.009l-0.041,0.009l-0.04,0.009l-0.041,0.01l-0.04,0.01l-0.04,0.01l-0.039,0.01l-0.039,0.011l-0.04,0.011l-0.038,0.011l-0.039,0.011l-0.038,0.011l-0.038,0.012l-0.038,0.012l-0.038,0.012l-0.037,0.012l-0.037,0.012l-0.037,0.013l-0.037,0.012l-0.036,0.013l-0.036,0.014l-0.036,0.013l-0.035,0.014l-0.035,0.013l-0.035,0.014l-0.027,0.011l-0.008,0.003l-0.035,0.014l-0.034,0.014l-0.034,0.014l-0.034,0.015l-0.033,0.014l-0.033,0.015l-0.033,0.015l-0.032,0.015l-0.033,0.016l-0.032,0.015l-0.031,0.016l-0.032,0.016l-0.031,0.016l-0.031,0.016l-0.03,0.016l-0.03,0.017l-0.03,0.016l-0.03,0.017l-0.029,0.017l-0.029,0.017l-0.029,0.018l-0.028,0.017l-0.028,0.018l-0.028,0.017l-0.027,0.018l-0.027,0.018l-0.027,0.019l-0.026,0.018l-0.026,0.018l-0.026,0.019l-0.025,0.019l-0.026,0.019l-0.024,0.019l-0.025,0.019l-0.024,0.019l-0.024,0.02l-0.023,0.019l-0.023,0.02l-0.023,0.02l-0.023,0.02l-0.022,0.02l-0.021,0.02l-0.022,0.02l-0.021,0.021l-0.021,0.02l-0.02,0.021l-0.02,0.021l-0.02,0.021l-0.02,0.021l-0.019,0.021l-0.018,0.021l-0.019,0.021l-0.005,0.006l-0.013,0.015l-0.018,0.021l-0.018,0.022l-0.017,0.021l-0.017,0.022l-0.017,0.021l-0.016,0.022l-0.016,0.022l-0.016,0.022l-0.015,0.022l-0.016,0.022l-0.014,0.022l-0.015,0.022l-0.014,0.023l-0.014,0.022l-0.013,0.023l-0.013,0.023l-0.013,0.022l-0.012,0.023l-0.012,0.023l-0.012,0.023l-0.012,0.024l-0.011,0.023l-0.011,0.023l-0.01,0.024l-0.011,0.024l-0.01,0.023l-0.009,0.024l-0.01,0.024l-0.008,0.024l-0.009,0.024l-0.009,0.025l-0.008,0.024l-0.007,0.025l-0.008,0.025l-0.007,0.024l-0.007,0.025l-0.006,0.025l-0.006,0.026l-0.006,0.025l-0.006,0.026l-0.005,0.025l-0.005,0.026l-0.004,0.026l-0.005,0.026l-0.003,0.026l-0.004,0.027l-0.003,0.026l-0.003,0.027l-0.003,0.027l-0.002,0.027l-0.002,0.027l-0.002,0.028l-0.001,0.027l-0.001,0.028l-0.001,0.028l0,0.028l0,0.028l0,0.011l0,0.018l0,0.029l0.001,0.029l0.001,0.029l0.001,0.029l0.002,0.03l0.002,0.029l0.002,0.03l0.003,0.031l0.003,0.03l0.003,0.031l0.004,0.031l0.005,0.031l0.004,0.031l0.005,0.032l0.006,0.032l0.005,0.029l0.003,0.012l0.003,0.01l0.001,0.001l0.001,0.004l0.001,0.003l0.001,0.003l0.001,0.003l0.001,0.002l0.002,0.003l0.001,0.002l0.001,0.002l0.001,0.002l0.001,0.001l0.002,0.003l0.002,0.002l0.001,0.002l0.001,0.001l0.003,0.005l-0.005,-0.009l0.003,0.005l0.004,0.005l-0.006,-0.009l0.004,0.005l0.003,0.005l-0.006,-0.01l0.004,0.005l0.003,0.005l-0.006,-0.009l0.004,0.005l0.004,0.004l-0.007,-0.009l0.004,0.005l0.004,0.004l-0.007,-0.009l0.004,0.005l0.004,0.004l-0.007,-0.008l0.004,0.004l0.004,0.004l-0.007,-0.008l0.002,0.002l0.003,0.002l0.009,0.009l-0.015,-0.016l0.009,0.008l0.002,0.001l0.002,0.001l0.006,0.003l0.007,0.003l0.005,0.002l0.005,0.002l0.006,0.003l0.007,0.003l0.007,0.002l0.008,0.003l0.008,0.003l0.01,0.003l0.01,0.004l0.011,0.003l0.011,0.003l0.013,0.003l0.013,0.004l0.014,0.003l0.015,0.003l0.015,0.003l0.016,0.003l0.017,0.003l0.018,0.002l0.018,0.003l0.019,0.002l0.02,0.003l0.021,0.002l0.021,0.002l0.016,0.001l0.005,0l0.023,0.002l0.023,0.002l0.023,0.001l0.025,0.002l0.024,0.001l0.026,0.001l0.026,0l0.026,0.001l0.027,0l0.028,0l0.028,-0.001l0.029,0l0.029,-0.001l0.03,-0.001l0.03,-0.001l0.03,-0.002l0.031,-0.001l0.032,-0.002l0.032,-0.002l0.032,-0.003l0.033,-0.002l0.033,-0.003l0.034,-0.003l0.034,-0.003l0.034,-0.004l0.035,-0.003l0.034,-0.004l0.008,-0.001l0.064,-0.007l0.073,-0.008l0.074,-0.009l0.075,-0.01l0.076,-0.01l0.078,-0.011l0.078,-0.012l0.08,-0.012l0.081,-0.012l0.081,-0.014l0.082,-0.014l0.034,-0.005l0.05,-0.008l0.084,-0.013l0.084,-0.014l0.086,-0.014l0.086,-0.014l0.174,-0.03l0.176,-0.03l0.213,-0.038l0.143,-0.022l0.18,-0.029l0.18,-0.028l0.091,-0.014l0.091,-0.014l0.09,-0.013l0.091,-0.014l0.09,-0.012l0.09,-0.013l0.046,-0.006l0.045,-0.006l0.09,-0.01l0.09,-0.01l0.089,-0.01l0.09,-0.009l0.089,-0.009l0.089,-0.008l0.088,-0.007l0.088,-0.006l0.087,-0.006l0.045,-0.003l0.043,-0.002l0.044,-0.003l0.043,-0.002l0.043,-0.001l0.043,-0.002l0.043,-0.001l0.043,-0.002l0.043,-0.001l0.043,0l0.042,-0.001l0.042,0l0.042,0l0.043,0.001l0.041,0l0.042,0.001l0.042,0.002l0.041,0.001l0.042,0.002l0.041,0.002l0.041,0.003l0.041,0.002l0.041,0.004l0.04,0.003l0.041,0.004l0.04,0.004l0.041,0.005l0.04,0.005l0.04,0.005l0.039,0.006l0.04,0.006l0.04,0.007l0.039,0.007l0.039,0.008l0.039,0.008l0.039,0.009l0.039,0.009l0.038,0.01l0.039,0.01l0.038,0.011l0.038,0.011l0.038,0.012l0.038,0.012l0.038,0.014l0.037,0.014l0.022,0.008l0.015,0.006l0.037,0.016l0.037,0.016l0.036,0.017l0.037,0.018l0.036,0.019l0.035,0.019l0.035,0.021l0.035,0.021l0.035,0.022l0.034,0.022l0.034,0.024l0.033,0.025l0.033,0.025l0.032,0.027l0.031,0.027l0.031,0.028l0.031,0.03l0.029,0.03l0.029,0.031l0.027,0.03l0.015,0.018l0.013,0.016l0.014,0.017l0.013,0.017l0.013,0.017l0.012,0.018l0.013,0.017l0.012,0.018l0.012,0.018l0.011,0.018l0.012,0.018l0.011,0.019l0.011,0.018l0.01,0.019l0.011,0.019l0.01,0.019l0.01,0.019l0.009,0.02l0.01,0.019l0.009,0.02l0.008,0.02l0.009,0.02l0.008,0.02l0.008,0.02l0.008,0.02l0.007,0.021l0.007,0.02l0.007,0.021l0.006,0.021l0.007,0.021l0.006,0.021l0.005,0.021l0.006,0.021l0.005,0.021l0.005,0.022l0.004,0.021l0.005,0.021l0.004,0.022l0.004,0.022l0.004,0.023l0.006,0.042l0.005,0.043l0.005,0.044l0.003,0.044l0.003,0.043l0.002,0.043l0.002,0.043l0.001,0.043l0,0.042l-0.001,0.043l-0.001,0.042l-0.002,0.042l-0.003,0.042l-0.003,0.042l-0.005,0.042l-0.004,0.041l-0.006,0.042l-0.006,0.041l-0.006,0.041l-0.008,0.04l-0.008,0.041l-0.008,0.04l-0.01,0.04l-0.009,0.039l-0.011,0.04l-0.011,0.039l-0.012,0.039l-0.012,0.039l-0.013,0.038l-0.013,0.038l-0.014,0.038l-0.015,0.037l-0.015,0.038l-0.015,0.037l-0.016,0.036l-0.017,0.037l-0.017,0.036l-0.018,0.036l-0.018,0.035l-0.019,0.035l-0.019,0.035l-0.02,0.035l-0.02,0.034l-0.02,0.034l-0.016,0.025l-0.005,0.009l-0.022,0.033l-0.022,0.033l-0.023,0.033l-0.023,0.032l-0.023,0.032l-0.024,0.032l-0.024,0.032l-0.025,0.031l-0.025,0.031l-0.025,0.03l-0.026,0.03l-0.026,0.03l-0.027,0.03l-0.027,0.029l-0.027,0.029l-0.028,0.029l-0.028,0.028l-0.028,0.028l-0.028,0.028l-0.029,0.028l-0.03,0.027l-0.029,0.027l-0.03,0.027l-0.03,0.026l-0.031,0.026l-0.031,0.026l-0.031,0.025l-0.031,0.026l-0.032,0.025l-0.032,0.024l-0.032,0.025l-0.033,0.024l-0.032,0.024l-0.034,0.023l-0.033,0.023l-0.033,0.023l-0.034,0.023l-0.034,0.023l-0.035,0.022l-0.034,0.022l-0.035,0.021l-0.035,0.021l-0.036,0.022l-0.035,0.02l-0.036,0.021l-0.036,0.02l-0.036,0.02l-0.037,0.02l-0.036,0.019l-0.037,0.019l-0.037,0.019l-0.038,0.019l-0.037,0.018l-0.038,0.018l-0.038,0.018l-0.038,0.018l-0.038,0.017l-0.038,0.017l-0.039,0.017l-0.039,0.016l-0.039,0.016l-0.039,0.016l-0.039,0.016l-0.039,0.015l-0.04,0.015l-0.04,0.015l-0.04,0.015l-0.04,0.014l-0.01,0.004l-0.03,0.01l-0.04,0.013l-0.041,0.014l-0.041,0.013l-0.041,0.012l-0.041,0.013l-0.041,0.012l-0.041,0.012l-0.041,0.011l-0.042,0.011l-0.041,0.011l-0.042,0.011l-0.042,0.011l-0.042,0.01l-0.042,0.01l-0.042,0.009l-0.042,0.01l-0.042,0.009l-0.042,0.009l-0.043,0.008l-0.042,0.008l-0.043,0.008l-0.042,0.008l-0.043,0.007l-0.043,0.007l-0.043,0.007l-0.042,0.007l-0.043,0.006l-0.043,0.006l-0.043,0.006l-0.043,0.005l-0.043,0.005l-0.044,0.005l-0.043,0.004l-0.043,0.005l-0.043,0.004l-0.043,0.003l-0.043,0.004l-0.044,0.003l-0.043,0.002l-0.043,0.003l-0.044,0.002l-0.043,0.002l-0.043,0.002l-0.043,0.001l-0.044,0.001l-0.043,0.001l-0.043,0l-0.043,0l-0.043,0l-0.043,-0.001l-0.044,0l-0.043,-0.002l-0.043,-0.001l-0.043,-0.002l-0.043,-0.002l-0.042,-0.002l-0.043,-0.003l-0.043,-0.003l-0.043,-0.003l-0.042,-0.003l-0.043,-0.004l-0.043,-0.005l-0.042,-0.004l-0.042,-0.005l-0.043,-0.005l-0.042,-0.005l-0.042,-0.006l-0.042,-0.006l-0.042,-0.007l-0.042,-0.006l-0.041,-0.007l-0.042,-0.008l-0.041,-0.007l-0.042,-0.008l-0.041,-0.009l-0.041,-0.008l-0.041,-0.009l-0.041,-0.009l-0.041,-0.01l-0.04,-0.01l-0.041,-0.01l-0.04,-0.011l-0.04,-0.011l-0.04,-0.011l-0.04,-0.012l-0.039,-0.011l-0.04,-0.013l-0.039,-0.012l-0.039,-0.013l-0.039,-0.013l-0.039,-0.014l-0.039,-0.014l-0.038,-0.014l-0.038,-0.015l-0.038,-0.015l-0.038,-0.015l-0.038,-0.015l-0.037,-0.016l-0.037,-0.017l-0.037,-0.016l-0.009,-0.004l-0.028,-0.013l-0.036,-0.018l-0.037,-0.018l-0.036,-0.018l-0.035,-0.018l-0.036,-0.019l-0.035,-0.02l-0.035,-0.019l-0.035,-0.02l-0.034,-0.02l-0.034,-0.021l-0.034,-0.021l-0.034,-0.021l-0.033,-0.022l-0.033,-0.022l-0.033,-0.022l-0.033,-0.023l-0.032,-0.022l-0.032,-0.024l-0.031,-0.024l-0.032,-0.024l-0.031,-0.024l-0.03,-0.025l-0.031,-0.025l-0.03,-0.025l-0.03,-0.026l-0.029,-0.026l-0.029,-0.026l-0.029,-0.027l-0.028,-0.027l-0.028,-0.028l-0.028,-0.028l-0.027,-0.028l-0.027,-0.028l-0.027,-0.029l-0.026,-0.029l-0.026,-0.03l-0.026,-0.03l-0.025,-0.03l-0.025,-0.031l-0.024,-0.031l-0.024,-0.031l-0.018,-0.024l-0.006,-0.007l-0.023,-0.033l0.028,0.029l0.006,0.007l0.021,0.021l0.028,0.027l0.029,0.028l0.028,0.026l0.029,0.026l0.029,0.026l0.029,0.026l0.03,0.025l0.03,0.024l0.03,0.024l0.03,0.024l0.031,0.023l0.031,0.023l0.031,0.022l0.031,0.022l0.031,0.022l0.032,0.021l0.032,0.021l0.032,0.02l0.033,0.02l0.032,0.02l0.033,0.019l0.033,0.019l0.034,0.018l0.033,0.018l0.034,0.018l0.033,0.017l0.034,0.017l0.035,0.016l0.034,0.017l0.035,0.015l0.034,0.016l0.035,0.015l0.035,0.014l0.036,0.014l0.035,0.014l0.035,0.014l0.036,0.013l0.036,0.012l0.036,0.013l0.036,0.012l0.037,0.011l0.027,0.009l0.009,0.003l0.037,0.011l0.036,0.011l0.037,0.01l0.037,0.01l0.037,0.01l0.037,0.01l0.037,0.009l0.038,0.008l0.037,0.009l0.038,0.008l0.038,0.008l0.038,0.007l0.038,0.007l0.038,0.007l0.038,0.006l0.038,0.006l0.039,0.006l0.038,0.005l0.039,0.006l0.038,0.004l0.039,0.005l0.039,0.004l0.038,0.004l0.039,0.003l0.039,0.003l0.039,0.003l0.039,0.003l0.04,0.002l0.039,0.002l0.039,0.002l0.039,0.001l0.04,0.001l0.039,0.001l0.039,0l0.04,0l0.039,0l0.04,0l0.039,-0.001l0.04,-0.001l0.039,-0.002l0.04,-0.001l0.039,-0.002l0.04,-0.003l0.039,-0.002l0.04,-0.003l0.04,-0.003l0.039,-0.003l0.04,-0.004l0.039,-0.004l0.04,-0.004l0.039,-0.005l0.039,-0.005l0.04,-0.005l0.039,-0.005l0.039,-0.006l0.04,-0.005l0.039,-0.007l0.039,-0.006l0.039,-0.007l0.039,-0.007l0.039,-0.007l0.039,-0.007l0.039,-0.008l0.039,-0.008l0.039,-0.008l0.038,-0.009l0.039,-0.009l0.038,-0.009l0.039,-0.009l0.038,-0.009l0.038,-0.01l0.038,-0.01l0.038,-0.01l0.038,-0.011l0.038,-0.011l0.037,-0.01l0.038,-0.012l0.037,-0.011l0.038,-0.012l0.037,-0.012l0.037,-0.012l0.037,-0.012l0.036,-0.013l0.037,-0.013l0.036,-0.013l0.037,-0.013l0.036,-0.013l0.036,-0.014l0.036,-0.014l0.035,-0.014l0.036,-0.015l0.035,-0.014l0.035,-0.015l0.035,-0.015l0.035,-0.015l0.034,-0.015l0.035,-0.016l0.034,-0.016l0.034,-0.016l0.033,-0.016l0.025,-0.012l0.009,-0.004l0.033,-0.017l0.034,-0.016l0.033,-0.017l0.032,-0.017l0.033,-0.017l0.032,-0.017l0.032,-0.017l0.032,-0.018l0.032,-0.018l0.031,-0.018l0.031,-0.018l0.031,-0.018l0.031,-0.019l0.03,-0.018l0.03,-0.019l0.03,-0.019l0.029,-0.019l0.03,-0.019l0.029,-0.02l0.028,-0.019l0.029,-0.02l0.028,-0.02l0.028,-0.02l0.027,-0.02l0.027,-0.02l0.027,-0.021l0.027,-0.02l0.026,-0.021l0.026,-0.021l0.026,-0.021l0.025,-0.021l0.025,-0.021l0.025,-0.021l0.024,-0.022l0.025,-0.021l0.023,-0.022l0.024,-0.022l0.023,-0.022l0.022,-0.022l0.023,-0.022l0.022,-0.022l0.021,-0.022l0.021,-0.022l0.021,-0.023l0.021,-0.022l0.02,-0.022l0.02,-0.023l0.019,-0.023l0.019,-0.022l0.019,-0.023l0.018,-0.023l0.018,-0.023l0.017,-0.023l0.018,-0.023l0.016,-0.023l0.017,-0.023l0.016,-0.023l0.015,-0.023l0.015,-0.023l0.015,-0.024l0.015,-0.023l0.014,-0.023l0.013,-0.023l0.013,-0.024l0.013,-0.023l0.013,-0.023l0.012,-0.024l0.011,-0.023l0.003,-0.006l0.009,-0.017l0.011,-0.023l0.01,-0.023l0.011,-0.024l0.01,-0.023l0.009,-0.023l0.009,-0.023l0.009,-0.023l0.008,-0.024l0.008,-0.023l0.008,-0.023l0.007,-0.023l0.007,-0.023l0.006,-0.024l0.006,-0.023l0.005,-0.023l0.006,-0.023l0.005,-0.023l0.004,-0.024l0.004,-0.023l0.004,-0.023l0.003,-0.023l0.003,-0.024l0.003,-0.023l0.002,-0.023l0.001,-0.023l0.002,-0.024l0.001,-0.023l0.001,-0.024l0,-0.023l0,-0.024l-0.001,-0.023l-0.001,-0.024l-0.001,-0.024l-0.002,-0.023l-0.002,-0.024l-0.002,-0.024l-0.003,-0.024l-0.004,-0.024l-0.003,-0.024l-0.005,-0.025l-0.004,-0.024l-0.005,-0.024l-0.004,-0.018l-0.005,-0.018l-0.002,-0.006l-0.002,-0.008l-0.003,-0.007l-0.002,-0.007l-0.003,-0.007l-0.002,-0.007l-0.003,-0.006l-0.002,-0.007l-0.003,-0.006l-0.002,-0.006l-0.003,-0.006l-0.003,-0.005l-0.002,-0.006l-0.003,-0.005l-0.003,-0.005l-0.002,-0.005l-0.003,-0.005l-0.003,-0.004l-0.003,-0.005l-0.002,-0.004l-0.003,-0.004l-0.003,-0.004l-0.003,-0.004l-0.002,-0.004l-0.003,-0.004l-0.003,-0.004l-0.003,-0.003l-0.003,-0.003l-0.003,-0.004l-0.003,-0.003l-0.003,-0.003l-0.002,-0.003l-0.003,-0.003l-0.003,-0.003l-0.003,-0.003l-0.004,-0.003l-0.003,-0.003l-0.003,-0.003l-0.006,-0.006l0.006,0.007l-0.005,-0.005l-0.008,-0.007l-0.007,-0.005l-0.007,-0.005l-0.007,-0.005l-0.008,-0.005l-0.008,-0.005l-0.009,-0.005l-0.009,-0.005l-0.009,-0.005l-0.01,-0.005l-0.01,-0.005l-0.011,-0.005l-0.012,-0.005l-0.012,-0.005l-0.012,-0.005l-0.013,-0.005l-0.014,-0.005l-0.014,-0.005l-0.015,-0.004l-0.016,-0.005l-0.007,-0.002l-0.009,-0.003l-0.017,-0.004l-0.017,-0.005l-0.018,-0.004l-0.019,-0.005l-0.019,-0.004l-0.02,-0.004l-0.021,-0.003l-0.021,-0.004l-0.022,-0.003l-0.022,-0.004l-0.023,-0.002l-0.023,-0.003l-0.024,-0.003l-0.025,-0.002l-0.025,-0.002l-0.026,-0.002l-0.026,-0.002l-0.027,-0.001l-0.027,-0.001l-0.028,-0.001l-0.028,-0.001l-0.029,0l-0.029,0l-0.03,0l-0.03,0l-0.031,0.001l-0.031,0.001l-0.031,0.001l-0.032,0.001l-0.032,0.002l-0.033,0.002l-0.033,0.002l-0.033,0.002l-0.034,0.003l-0.034,0.003l-0.035,0.003l-0.035,0.003l-0.035,0.003l-0.035,0.004l-0.036,0.004l-0.036,0.004l-0.037,0.004l-0.037,0.005l-0.037,0.005l-0.036,0.005l-0.077,0.01l-0.077,0.011l-0.077,0.012l-0.079,0.013l-0.079,0.014l-0.081,0.014l-0.081,0.014l-0.082,0.015l-0.083,0.016l-0.041,0.008l-0.042,0.008l-0.085,0.015l-0.084,0.016l-0.086,0.016l-0.086,0.017l-0.086,0.017l-0.087,0.017l-0.175,0.036l-0.175,0.036l-0.142,0.029l-0.213,0.04l-0.178,0.034l-0.177,0.034l-0.09,0.016l-0.088,0.016l-0.089,0.016l-0.089,0.016l-0.053,0.009l-0.035,0.006l-0.088,0.013l-0.088,0.013l-0.088,0.013l-0.087,0.013l-0.088,0.011l-0.086,0.012l-0.087,0.01l-0.086,0.01l-0.085,0.009l-0.085,0.009l-0.075,0.007l-0.009,0l-0.043,0.004l-0.042,0.003l-0.042,0.002l-0.042,0.003l-0.041,0.002l-0.042,0.002l-0.041,0.002l-0.042,0.001l-0.041,0.002l-0.041,0.001l-0.041,0l-0.041,0.001l-0.04,0l-0.041,0l-0.04,0l-0.041,-0.001l-0.04,-0.001l-0.04,-0.001l-0.04,-0.002l-0.04,-0.002l-0.039,-0.003l-0.04,-0.002l-0.039,-0.003l-0.04,-0.004l-0.039,-0.004l-0.039,-0.004l-0.039,-0.005l-0.011,-0.002l-0.028,-0.004l-0.039,-0.006l-0.039,-0.007l-0.039,-0.007l-0.038,-0.007l-0.039,-0.009l-0.038,-0.008l-0.039,-0.01l-0.038,-0.01l-0.038,-0.01l-0.038,-0.011l-0.038,-0.012l-0.038,-0.013l-0.038,-0.013l-0.037,-0.015l-0.038,-0.015l-0.037,-0.015l-0.038,-0.017l-0.037,-0.018l-0.037,-0.018l-0.036,-0.02l-0.037,-0.02l-0.036,-0.022l-0.036,-0.022l-0.035,-0.024l-0.035,-0.024l-0.035,-0.026l-0.034,-0.027l-0.033,-0.028l-0.033,-0.029l-0.032,-0.031l-0.031,-0.031l-0.031,-0.033l-0.027,-0.031l-0.017,-0.02l-0.014,-0.017l-0.014,-0.018l-0.013,-0.018l-0.014,-0.018l-0.013,-0.018l-0.013,-0.019l-0.012,-0.019l-0.013,-0.019l-0.012,-0.02l-0.011,-0.019l-0.012,-0.02l-0.011,-0.02l-0.011,-0.02l-0.01,-0.02l-0.01,-0.02l-0.01,-0.021l-0.009,-0.021l-0.009,-0.021l-0.009,-0.021l-0.009,-0.021l-0.008,-0.021l-0.008,-0.021l-0.007,-0.022l-0.007,-0.021l-0.007,-0.022l-0.006,-0.022l-0.007,-0.022l-0.005,-0.022l-0.006,-0.022l-0.005,-0.022l-0.005,-0.022l-0.005,-0.022l-0.004,-0.024l-0.007,-0.042l-0.006,-0.043l-0.006,-0.049l-0.005,-0.048l-0.005,-0.047l-0.004,-0.047l-0.003,-0.046l-0.003,-0.047l-0.002,-0.046l-0.002,-0.047l-0.001,-0.046l-0.001,-0.046l0,-0.046l0.001,-0.045l0.001,-0.046l0.001,-0.045l0.002,-0.045l0.003,-0.045l0.002,-0.028l0.001,-0.017l0.004,-0.044l0.005,-0.045l0.005,-0.044l0.006,-0.044l0.007,-0.044l0.006,-0.043l0.008,-0.043l0.008,-0.043l0.008,-0.043l0.009,-0.043l0.01,-0.042l0.01,-0.042l0.01,-0.042l0.011,-0.042l0.012,-0.041l0.012,-0.041l0.012,-0.041l0.013,-0.041l0.014,-0.04l0.014,-0.04l0.014,-0.04l0.015,-0.04l0.016,-0.039l0.016,-0.039l0.016,-0.039l0.017,-0.038l0.017,-0.038l0.018,-0.038l0.019,-0.037l0.018,-0.038l0.02,-0.037l0.019,-0.036l0.02,-0.037l0.021,-0.036l0.021,-0.035l0.021,-0.036l0.022,-0.035l0.022,-0.034l0.023,-0.035l0.023,-0.034l0.023,-0.034l0.024,-0.033l0.025,-0.033l0.024,-0.033l0.025,-0.033l0.026,-0.032l0.026,-0.032l0.026,-0.031l0.026,-0.031l0.027,-0.031l0.028,-0.031l0.027,-0.03l0.028,-0.03l0.028,-0.029l0.029,-0.03l0.029,-0.028l0.03,-0.029l0.021,-0.021l0.008,-0.007l0.031,-0.028l0.03,-0.027l0.031,-0.027l0.031,-0.026l0.032,-0.027l0.032,-0.026l0.032,-0.025l0.032,-0.025l0.033,-0.025l0.033,-0.025l0.033,-0.024l0.034,-0.024l0.033,-0.024l0.034,-0.023l0.035,-0.023l0.034,-0.022l0.035,-0.023l0.035,-0.022l0.036,-0.021l0.035,-0.022l0.036,-0.021l0.036,-0.02l0.037,-0.021l0.036,-0.02l0.037,-0.02l0.037,-0.019l0.038,-0.019l0.037,-0.019l0.038,-0.018l0.038,-0.019l0.038,-0.018l0.039,-0.017l0.039,-0.017l0.039,-0.017l0.039,-0.017l0.039,-0.016l0.04,-0.016l0.039,-0.016l0.04,-0.016l0.041,-0.015l0.04,-0.015l0.041,-0.014l0.04,-0.014l0.041,-0.014l0.041,-0.014l0.042,-0.013l0.041,-0.013l0.042,-0.013l0.042,-0.013l0.042,-0.012l0.043,-0.012l0.042,-0.011l0.01,-0.003l0.033,-0.008l0.043,-0.011l0.043,-0.01l0.043,-0.01l0.044,-0.01l0.043,-0.009l0.044,-0.009l0.044,-0.009l0.044,-0.009l0.045,-0.008l0.044,-0.008l0.045,-0.008l0.045,-0.007l0.045,-0.007l0.045,-0.007l0.045,-0.006l0.045,-0.007l0.046,-0.005l0.045,-0.006l0.046,-0.006l0.046,-0.005l0.046,-0.004l0.046,-0.005l0.047,-0.004l0.046,-0.004l0.047,-0.004l0.046,-0.003l0.047,-0.003l0.047,-0.003l0.047,-0.003l0.048,-0.002l0.047,-0.002l0.047,-0.002l0.048,-0.001l0.048,-0.001l0.048,-0.001l0.047,-0.001l0.048,0l0.049,0l0.048,0Z" style="fill:#fff;"/><path d="M44.124,2.466l0.048,0.001l0.049,0l0.048,0.002l0.049,0.001l0.049,0.002l0.048,0.001l0.049,0.003l0.049,0.002l0.05,0.003l0.049,0.003l0.049,0.003l0.049,0.004l0.05,0.004l0.049,0.004l0.05,0.004l0.05,0.005l0.05,0.005l0.049,0.005l0.05,0.006l0.05,0.006l0.05,0.006l0.051,0.006l0.05,0.007l0.05,0.007l0.05,0.007l0.051,0.007l0.05,0.008l0.051,0.008l0.05,0.009l0.051,0.008l0.051,0.009l0.05,0.009l0.051,0.01l0.051,0.009l0.051,0.01l0.051,0.011l0.05,0.01l0.047,0.01l0.004,0.001l0.051,0.012l0.051,0.012l0.051,0.012l0.051,0.012l0.051,0.013l0.051,0.013l0.051,0.013l0.052,0.014l0.051,0.014l0.051,0.014l0.051,0.015l0.051,0.014l0.051,0.015l0.051,0.015l0.051,0.016l0.052,0.016l0.051,0.016l0.051,0.016l0.051,0.017l0.051,0.017l0.051,0.017l0.052,0.018l0.051,0.018l0.051,0.018l0.051,0.018l0.051,0.019l0.051,0.018l0.051,0.02l0.051,0.019l0.051,0.02l0.051,0.02l0.051,0.02l0.051,0.021l0.051,0.021l0.051,0.021l0.05,0.021l0.051,0.022l0.051,0.022l0.05,0.022l0.051,0.023l0.051,0.023l0.05,0.023l0.051,0.023l0.05,0.024l0.051,0.024l0.05,0.024l0.05,0.025l0.05,0.025l0.05,0.025l0.051,0.025l0.01,0.006l0.04,0.02l-0.042,-0.014l-0.012,-0.003l-0.053,-0.018l-0.054,-0.016l-0.053,-0.017l-0.053,-0.016l-0.054,-0.016l-0.053,-0.016l-0.053,-0.015l-0.053,-0.016l-0.053,-0.014l-0.053,-0.015l-0.054,-0.014l-0.053,-0.014l-0.053,-0.014l-0.052,-0.013l-0.053,-0.013l-0.053,-0.013l-0.053,-0.012l-0.053,-0.012l-0.052,-0.012l-0.053,-0.012l-0.053,-0.011l-0.052,-0.011l-0.053,-0.011l-0.052,-0.01l-0.052,-0.011l-0.052,-0.01l-0.053,-0.009l-0.052,-0.01l-0.052,-0.009l-0.052,-0.008l-0.051,-0.009l-0.052,-0.008l-0.052,-0.008l-0.051,-0.008l-0.052,-0.007l-0.051,-0.007l-0.052,-0.007l-0.051,-0.007l-0.051,-0.006l-0.051,-0.006l-0.051,-0.006l-0.051,-0.005l-0.051,-0.005l-0.05,-0.005l-0.051,-0.005l-0.05,-0.004l-0.051,-0.004l-0.05,-0.004l-0.05,-0.004l-0.05,-0.003l-0.004,0l-0.046,-0.004l-0.049,-0.003l-0.05,-0.003l-0.049,-0.003l-0.05,-0.002l-0.049,-0.003l-0.049,-0.002l-0.049,-0.001l-0.048,-0.002l-0.049,-0.001l-0.049,-0.001l-0.048,-0.001l-0.048,0l-0.048,-0.001l-0.048,0l-0.048,0.001l-0.048,0l-0.047,0.001l-0.048,0.001l-0.047,0.001l-0.047,0.002l-0.047,0.002l-0.047,0.002l-0.046,0.002l-0.047,0.003l-0.046,0.002l-0.046,0.003l-0.046,0.004l-0.046,0.003l-0.045,0.004l-0.046,0.004l-0.045,0.004l-0.045,0.005l-0.045,0.004l-0.044,0.005l-0.045,0.005l-0.044,0.006l-0.044,0.006l-0.044,0.005l-0.044,0.006l-0.043,0.007l-0.044,0.006l-0.043,0.007l-0.043,0.007l-0.042,0.007l-0.043,0.008l-0.042,0.008l-0.042,0.008l-0.042,0.008l-0.042,0.008l-0.041,0.009l-0.041,0.009l-0.041,0.009l-0.041,0.009l-0.04,0.009l-0.041,0.01l-0.04,0.01l-0.04,0.01l-0.039,0.01l-0.039,0.011l-0.04,0.011l-0.038,0.011l-0.039,0.011l-0.038,0.011l-0.038,0.012l-0.038,0.012l-0.038,0.012l-0.037,0.012l-0.037,0.012l-0.037,0.013l-0.037,0.012l-0.036,0.013l-0.036,0.014l-0.036,0.013l-0.035,0.014l-0.035,0.013l-0.035,0.014l-0.027,0.011l-0.008,0.003l-0.035,0.014l-0.034,0.014l-0.034,0.014l-0.034,0.015l-0.033,0.014l-0.033,0.015l-0.033,0.015l-0.032,0.015l-0.033,0.016l-0.032,0.015l-0.031,0.016l-0.032,0.016l-0.031,0.016l-0.031,0.016l-0.03,0.016l-0.03,0.017l-0.03,0.016l-0.03,0.017l-0.029,0.017l-0.029,0.017l-0.029,0.018l-0.028,0.017l-0.028,0.018l-0.028,0.017l-0.027,0.018l-0.027,0.018l-0.027,0.019l-0.026,0.018l-0.026,0.018l-0.026,0.019l-0.025,0.019l-0.026,0.019l-0.024,0.019l-0.025,0.019l-0.024,0.019l-0.024,0.02l-0.023,0.019l-0.023,0.02l-0.023,0.02l-0.023,0.02l-0.022,0.02l-0.021,0.02l-0.022,0.02l-0.021,0.021l-0.021,0.02l-0.02,0.021l-0.02,0.021l-0.02,0.021l-0.02,0.021l-0.019,0.021l-0.018,0.021l-0.019,0.021l-0.005,0.006l-0.013,0.015l-0.018,0.021l-0.018,0.022l-0.017,0.021l-0.017,0.022l-0.017,0.021l-0.016,0.022l-0.016,0.022l-0.016,0.022l-0.015,0.022l-0.015,0.022l-0.015,0.022l-0.015,0.022l-0.014,0.023l-0.013,0.022l-0.014,0.023l-0.013,0.023l-0.013,0.022l-0.012,0.023l-0.012,0.023l-0.012,0.023l-0.012,0.024l-0.011,0.023l-0.011,0.023l-0.01,0.024l-0.011,0.024l-0.01,0.023l-0.009,0.024l-0.009,0.024l-0.009,0.024l-0.009,0.024l-0.008,0.025l-0.009,0.024l-0.007,0.025l-0.008,0.025l-0.007,0.024l-0.007,0.025l-0.006,0.025l-0.006,0.026l-0.006,0.025l-0.006,0.026l-0.005,0.025l-0.005,0.026l-0.004,0.026l-0.005,0.026l-0.003,0.026l-0.004,0.027l-0.003,0.026l-0.003,0.027l-0.003,0.027l-0.002,0.027l-0.002,0.027l-0.002,0.028l-0.001,0.027l-0.001,0.028l-0.001,0.028l0,0.028l0,0.028l0,0.011l0,0.018l0,0.029l0.001,0.029l0.001,0.029l0.001,0.029l0.002,0.03l0.002,0.029l0.002,0.03l0.003,0.031l0.003,0.03l0.004,0.031l0.003,0.031l0.005,0.031l0.004,0.031l0.005,0.032l0.006,0.032l0.005,0.029l0.003,0.012l0.003,0.01l0.001,0.001l0.001,0.004l0.001,0.003l0.001,0.003l0.001,0.003l0.001,0.002l0.002,0.003l0.001,0.002l0.001,0.002l0.001,0.002l0.001,0.001l0.002,0.003l0.002,0.002l0.001,0.002l0.001,0.001l0.003,0.005l-0.005,-0.009l0.003,0.005l0.004,0.005l-0.006,-0.009l0.004,0.005l0.003,0.005l-0.006,-0.01l0.004,0.005l0.003,0.005l-0.006,-0.009l0.004,0.005l0.004,0.004l-0.007,-0.009l0.004,0.005l0.004,0.004l-0.007,-0.009l0.004,0.005l0.004,0.004l-0.007,-0.008l0.004,0.004l0.004,0.004l-0.007,-0.008l0.002,0.002l0.003,0.002l0.009,0.009l-0.015,-0.016l0.009,0.008l0.002,0.001l0.002,0.001l0.006,0.003l0.007,0.003l0.005,0.002l0.005,0.002l0.006,0.003l0.007,0.003l0.007,0.002l0.008,0.003l0.008,0.003l0.01,0.003l0.01,0.004l0.011,0.003l0.011,0.003l0.013,0.003l0.013,0.004l0.014,0.003l0.015,0.003l0.015,0.003l0.016,0.003l0.017,0.003l0.018,0.002l0.018,0.003l0.019,0.002l0.02,0.003l0.021,0.002l0.021,0.002l0.016,0.001l0.005,0l0.023,0.002l0.023,0.002l0.023,0.001l0.025,0.002l0.024,0.001l0.026,0.001l0.026,0l0.026,0.001l0.027,0l0.028,0l0.028,-0.001l0.029,0l0.029,-0.001l0.03,-0.001l0.03,-0.001l0.03,-0.002l0.031,-0.001l0.032,-0.002l0.032,-0.002l0.032,-0.003l0.033,-0.002l0.033,-0.003l0.034,-0.003l0.034,-0.003l0.034,-0.004l0.035,-0.003l0.034,-0.004l0.008,-0.001l0.064,-0.007l0.073,-0.008l0.074,-0.009l0.075,-0.01l0.076,-0.01l0.078,-0.011l0.079,-0.012l0.079,-0.012l0.081,-0.012l0.081,-0.014l0.082,-0.014l0.034,-0.005l0.05,-0.008l0.084,-0.013l0.085,-0.014l0.085,-0.014l0.086,-0.014l0.174,-0.03l0.176,-0.03l0.213,-0.038l0.143,-0.022l0.18,-0.029l0.18,-0.028l0.091,-0.014l0.091,-0.014l0.09,-0.013l0.091,-0.014l0.09,-0.012l0.09,-0.013l0.046,-0.006l0.045,-0.006l0.09,-0.01l0.09,-0.01l0.089,-0.01l0.09,-0.009l0.089,-0.009l0.089,-0.008l0.088,-0.007l0.088,-0.006l0.087,-0.006l0.045,-0.003l0.043,-0.002l0.044,-0.003l0.043,-0.002l0.043,-0.001l0.043,-0.002l0.043,-0.001l0.043,-0.002l0.043,-0.001l0.043,0l0.042,-0.001l0.042,0l0.043,0l0.042,0.001l0.041,0l0.042,0.001l0.042,0.002l0.041,0.001l0.042,0.002l0.041,0.002l0.041,0.003l0.041,0.002l0.041,0.004l0.04,0.003l0.041,0.004l0.04,0.004l0.041,0.005l0.04,0.005l0.04,0.005l0.039,0.006l0.04,0.006l0.04,0.007l0.039,0.007l0.039,0.008l0.039,0.008l0.039,0.009l0.039,0.009l0.038,0.01l0.039,0.01l0.038,0.011l0.038,0.011l0.038,0.012l0.038,0.012l0.038,0.014l0.037,0.014l0.022,0.008l0.015,0.006l0.037,0.016l0.037,0.016l0.036,0.017l0.037,0.018l0.036,0.019l0.035,0.019l0.035,0.021l0.035,0.021l0.035,0.022l0.034,0.022l0.034,0.024l0.033,0.025l0.033,0.025l0.032,0.027l0.031,0.027l0.031,0.028l0.031,0.03l0.029,0.03l0.029,0.031l0.027,0.03l0.015,0.018l0.013,0.016l0.014,0.017l0.013,0.017l0.013,0.017l0.012,0.018l0.013,0.017l0.012,0.018l0.012,0.018l0.011,0.018l0.012,0.018l0.011,0.019l0.011,0.018l0.01,0.019l0.011,0.019l0.01,0.019l0.01,0.019l0.009,0.02l0.01,0.019l0.009,0.02l0.008,0.02l0.009,0.02l0.008,0.02l0.008,0.02l0.008,0.02l0.007,0.021l0.007,0.02l0.007,0.021l0.006,0.021l0.007,0.021l0.006,0.021l0.005,0.021l0.006,0.021l0.005,0.021l0.005,0.022l0.005,0.021l0.004,0.021l0.004,0.022l0.004,0.022l0.004,0.023l0.006,0.042l0.005,0.043l0.005,0.044l0.003,0.044l0.003,0.043l0.002,0.043l0.002,0.043l0.001,0.043l0,0.042l-0.001,0.043l-0.001,0.042l-0.002,0.042l-0.003,0.042l-0.003,0.042l-0.004,0.042l-0.005,0.041l-0.006,0.042l-0.006,0.041l-0.006,0.041l-0.008,0.04l-0.008,0.041l-0.008,0.04l-0.01,0.04l-0.009,0.039l-0.011,0.04l-0.011,0.039l-0.012,0.039l-0.012,0.039l-0.013,0.038l-0.013,0.038l-0.014,0.038l-0.015,0.037l-0.015,0.038l-0.015,0.037l-0.016,0.036l-0.017,0.037l-0.017,0.036l-0.018,0.036l-0.018,0.035l-0.019,0.035l-0.019,0.035l-0.02,0.035l-0.02,0.034l-0.02,0.034l-0.016,0.025l-0.005,0.009l-0.022,0.033l-0.022,0.033l-0.023,0.033l-0.023,0.032l-0.023,0.032l-0.024,0.032l-0.024,0.032l-0.025,0.031l-0.025,0.031l-0.025,0.03l-0.026,0.03l-0.026,0.03l-0.027,0.03l-0.027,0.029l-0.027,0.029l-0.028,0.029l-0.028,0.028l-0.028,0.028l-0.028,0.028l-0.029,0.028l-0.03,0.027l-0.029,0.027l-0.03,0.027l-0.03,0.026l-0.031,0.026l-0.031,0.026l-0.031,0.025l-0.031,0.026l-0.032,0.025l-0.032,0.024l-0.032,0.025l-0.033,0.024l-0.032,0.024l-0.034,0.023l-0.033,0.023l-0.033,0.023l-0.034,0.023l-0.034,0.023l-0.035,0.022l-0.034,0.022l-0.035,0.021l-0.035,0.021l-0.036,0.022l-0.035,0.02l-0.036,0.021l-0.036,0.02l-0.036,0.02l-0.037,0.02l-0.036,0.019l-0.037,0.019l-0.037,0.019l-0.037,0.019l-0.038,0.018l-0.038,0.018l-0.037,0.018l-0.039,0.018l-0.038,0.017l-0.038,0.017l-0.039,0.017l-0.039,0.016l-0.039,0.016l-0.039,0.016l-0.039,0.016l-0.039,0.015l-0.04,0.015l-0.04,0.015l-0.04,0.015l-0.04,0.014l-0.01,0.004l-0.03,0.01l-0.04,0.013l-0.041,0.014l-0.041,0.013l-0.041,0.012l-0.041,0.013l-0.041,0.012l-0.041,0.012l-0.041,0.011l-0.042,0.011l-0.041,0.011l-0.042,0.011l-0.042,0.011l-0.042,0.01l-0.042,0.01l-0.042,0.009l-0.042,0.01l-0.042,0.009l-0.042,0.009l-0.043,0.008l-0.042,0.008l-0.043,0.008l-0.042,0.008l-0.043,0.007l-0.043,0.007l-0.043,0.007l-0.042,0.007l-0.043,0.006l-0.043,0.006l-0.043,0.006l-0.043,0.005l-0.043,0.005l-0.044,0.005l-0.043,0.004l-0.043,0.005l-0.043,0.004l-0.043,0.003l-0.043,0.004l-0.044,0.003l-0.043,0.002l-0.043,0.003l-0.043,0.002l-0.044,0.002l-0.043,0.002l-0.043,0.001l-0.044,0.001l-0.043,0.001l-0.043,0l-0.043,0l-0.043,0l-0.043,-0.001l-0.044,0l-0.043,-0.002l-0.043,-0.001l-0.043,-0.002l-0.043,-0.002l-0.042,-0.002l-0.043,-0.003l-0.043,-0.003l-0.043,-0.003l-0.042,-0.003l-0.043,-0.004l-0.043,-0.005l-0.042,-0.004l-0.042,-0.005l-0.043,-0.005l-0.042,-0.005l-0.042,-0.006l-0.042,-0.006l-0.042,-0.007l-0.042,-0.006l-0.041,-0.007l-0.042,-0.008l-0.041,-0.007l-0.042,-0.008l-0.041,-0.009l-0.041,-0.008l-0.041,-0.009l-0.041,-0.009l-0.041,-0.01l-0.04,-0.01l-0.041,-0.01l-0.04,-0.011l-0.04,-0.011l-0.04,-0.011l-0.04,-0.012l-0.039,-0.011l-0.04,-0.013l-0.039,-0.012l-0.039,-0.013l-0.039,-0.013l-0.039,-0.014l-0.039,-0.014l-0.038,-0.014l-0.038,-0.015l-0.038,-0.015l-0.038,-0.015l-0.038,-0.015l-0.037,-0.016l-0.037,-0.017l-0.037,-0.016l-0.009,-0.004l-0.028,-0.013l-0.036,-0.018l-0.037,-0.018l-0.036,-0.018l-0.035,-0.018l-0.036,-0.019l-0.035,-0.02l-0.035,-0.019l-0.035,-0.02l-0.034,-0.02l-0.034,-0.021l-0.034,-0.021l-0.034,-0.021l-0.033,-0.022l-0.033,-0.022l-0.033,-0.022l-0.033,-0.023l-0.032,-0.022l-0.032,-0.024l-0.031,-0.024l-0.032,-0.024l-0.031,-0.024l-0.03,-0.025l-0.031,-0.025l-0.03,-0.025l-0.029,-0.026l-0.03,-0.026l-0.029,-0.026l-0.029,-0.027l-0.028,-0.027l-0.028,-0.028l-0.028,-0.028l-0.027,-0.028l-0.027,-0.028l-0.027,-0.029l-0.026,-0.029l-0.026,-0.03l-0.026,-0.03l-0.025,-0.03l-0.025,-0.031l-0.024,-0.031l-0.024,-0.031l-0.018,-0.024l-0.006,-0.007l-0.023,-0.033l0.028,0.029l0.006,0.007l0.021,0.021l0.028,0.027l0.029,0.028l0.028,0.026l0.029,0.026l0.029,0.026l0.029,0.026l0.03,0.025l0.03,0.024l0.03,0.024l0.03,0.024l0.031,0.023l0.031,0.023l0.031,0.022l0.031,0.022l0.032,0.022l0.031,0.021l0.032,0.021l0.032,0.02l0.033,0.02l0.032,0.02l0.033,0.019l0.033,0.019l0.034,0.018l0.033,0.018l0.034,0.018l0.033,0.017l0.034,0.017l0.035,0.016l0.034,0.017l0.035,0.015l0.034,0.016l0.035,0.015l0.035,0.014l0.036,0.014l0.035,0.014l0.035,0.014l0.036,0.013l0.036,0.012l0.036,0.013l0.036,0.012l0.037,0.011l0.027,0.009l0.009,0.003l0.037,0.011l0.036,0.011l0.037,0.01l0.037,0.01l0.037,0.01l0.037,0.01l0.037,0.009l0.038,0.008l0.037,0.009l0.038,0.008l0.038,0.008l0.038,0.007l0.038,0.007l0.038,0.007l0.038,0.006l0.038,0.006l0.039,0.006l0.038,0.005l0.039,0.006l0.038,0.004l0.039,0.005l0.039,0.004l0.038,0.004l0.039,0.003l0.039,0.003l0.039,0.003l0.039,0.003l0.04,0.002l0.039,0.002l0.039,0.002l0.039,0.001l0.04,0.001l0.039,0.001l0.039,0l0.04,0l0.039,0l0.04,0l0.039,-0.001l0.04,-0.001l0.039,-0.002l0.04,-0.001l0.039,-0.002l0.04,-0.003l0.039,-0.002l0.04,-0.003l0.04,-0.003l0.039,-0.003l0.04,-0.004l0.039,-0.004l0.04,-0.004l0.039,-0.005l0.039,-0.005l0.04,-0.005l0.039,-0.005l0.039,-0.006l0.04,-0.005l0.039,-0.007l0.039,-0.006l0.039,-0.007l0.039,-0.007l0.039,-0.007l0.039,-0.007l0.039,-0.008l0.039,-0.008l0.039,-0.008l0.038,-0.009l0.039,-0.009l0.038,-0.009l0.039,-0.009l0.038,-0.009l0.038,-0.01l0.038,-0.01l0.038,-0.01l0.038,-0.011l0.038,-0.011l0.038,-0.01l0.037,-0.012l0.037,-0.011l0.038,-0.012l0.037,-0.012l0.037,-0.012l0.037,-0.012l0.036,-0.013l0.037,-0.013l0.036,-0.013l0.037,-0.013l0.036,-0.013l0.036,-0.014l0.036,-0.014l0.035,-0.014l0.036,-0.015l0.035,-0.014l0.035,-0.015l0.035,-0.015l0.035,-0.015l0.034,-0.015l0.035,-0.016l0.034,-0.016l0.034,-0.016l0.033,-0.016l0.025,-0.012l0.009,-0.004l0.033,-0.017l0.034,-0.016l0.033,-0.017l0.032,-0.017l0.033,-0.017l0.032,-0.017l0.032,-0.017l0.032,-0.018l0.032,-0.018l0.031,-0.018l0.031,-0.018l0.031,-0.018l0.031,-0.019l0.03,-0.018l0.03,-0.019l0.03,-0.019l0.029,-0.019l0.03,-0.019l0.029,-0.02l0.028,-0.019l0.029,-0.02l0.028,-0.02l0.028,-0.02l0.027,-0.02l0.027,-0.02l0.027,-0.021l0.027,-0.02l0.026,-0.021l0.026,-0.021l0.026,-0.021l0.025,-0.021l0.025,-0.021l0.025,-0.021l0.024,-0.022l0.025,-0.021l0.023,-0.022l0.024,-0.022l0.023,-0.022l0.022,-0.022l0.023,-0.022l0.022,-0.022l0.021,-0.022l0.021,-0.022l0.021,-0.023l0.021,-0.022l0.02,-0.022l0.02,-0.023l0.019,-0.023l0.019,-0.022l0.019,-0.023l0.018,-0.023l0.018,-0.023l0.017,-0.023l0.018,-0.023l0.016,-0.023l0.017,-0.023l0.016,-0.023l0.015,-0.023l0.015,-0.023l0.015,-0.024l0.015,-0.023l0.014,-0.023l0.013,-0.023l0.013,-0.024l0.013,-0.023l0.013,-0.023l0.012,-0.024l0.011,-0.023l0.004,-0.006l0.008,-0.017l0.011,-0.023l0.01,-0.023l0.011,-0.024l0.01,-0.023l0.009,-0.023l0.009,-0.023l0.009,-0.023l0.008,-0.024l0.008,-0.023l0.008,-0.023l0.007,-0.023l0.007,-0.023l0.006,-0.024l0.006,-0.023l0.006,-0.023l0.005,-0.023l0.005,-0.023l0.004,-0.024l0.004,-0.023l0.004,-0.023l0.003,-0.023l0.003,-0.024l0.003,-0.023l0.002,-0.023l0.001,-0.023l0.002,-0.024l0.001,-0.023l0.001,-0.024l0,-0.023l0,-0.024l-0.001,-0.023l-0.001,-0.024l-0.001,-0.024l-0.002,-0.023l-0.002,-0.024l-0.002,-0.024l-0.003,-0.024l-0.004,-0.024l-0.003,-0.024l-0.004,-0.025l-0.005,-0.024l-0.005,-0.024l-0.004,-0.018l-0.005,-0.018l-0.002,-0.006l-0.002,-0.008l-0.003,-0.007l-0.002,-0.007l-0.003,-0.007l-0.002,-0.007l-0.003,-0.006l-0.002,-0.007l-0.003,-0.006l-0.002,-0.006l-0.003,-0.006l-0.003,-0.005l-0.002,-0.006l-0.003,-0.005l-0.003,-0.005l-0.002,-0.005l-0.003,-0.005l-0.003,-0.004l-0.003,-0.005l-0.002,-0.004l-0.003,-0.004l-0.003,-0.004l-0.003,-0.004l-0.002,-0.004l-0.003,-0.004l-0.003,-0.004l-0.003,-0.003l-0.003,-0.003l-0.003,-0.004l-0.003,-0.003l-0.003,-0.003l-0.002,-0.003l-0.003,-0.003l-0.003,-0.003l-0.003,-0.003l-0.004,-0.003l-0.003,-0.003l-0.003,-0.003l-0.006,-0.006l0.006,0.007l-0.005,-0.005l-0.008,-0.007l-0.007,-0.005l-0.007,-0.005l-0.007,-0.005l-0.008,-0.005l-0.008,-0.005l-0.009,-0.005l-0.009,-0.005l-0.009,-0.005l-0.01,-0.005l-0.01,-0.005l-0.011,-0.005l-0.012,-0.005l-0.012,-0.005l-0.012,-0.005l-0.013,-0.005l-0.014,-0.005l-0.014,-0.005l-0.015,-0.004l-0.016,-0.005l-0.007,-0.002l-0.009,-0.003l-0.017,-0.004l-0.017,-0.005l-0.018,-0.004l-0.019,-0.005l-0.019,-0.004l-0.02,-0.004l-0.021,-0.003l-0.021,-0.004l-0.022,-0.003l-0.022,-0.004l-0.023,-0.002l-0.023,-0.003l-0.024,-0.003l-0.025,-0.002l-0.025,-0.002l-0.026,-0.002l-0.026,-0.002l-0.027,-0.001l-0.027,-0.001l-0.028,-0.001l-0.028,-0.001l-0.029,0l-0.029,0l-0.03,0l-0.03,0l-0.031,0.001l-0.031,0.001l-0.031,0.001l-0.032,0.001l-0.032,0.002l-0.033,0.002l-0.033,0.002l-0.033,0.002l-0.034,0.003l-0.034,0.003l-0.035,0.003l-0.035,0.003l-0.035,0.003l-0.035,0.004l-0.036,0.004l-0.036,0.004l-0.037,0.004l-0.037,0.005l-0.037,0.005l-0.036,0.005l-0.077,0.01l-0.077,0.011l-0.077,0.012l-0.079,0.013l-0.079,0.014l-0.081,0.014l-0.081,0.014l-0.082,0.015l-0.083,0.016l-0.041,0.008l-0.042,0.008l-0.085,0.015l-0.084,0.016l-0.086,0.016l-0.086,0.017l-0.086,0.017l-0.086,0.017l-0.176,0.036l-0.175,0.036l-0.142,0.029l-0.213,0.04l-0.178,0.034l-0.177,0.034l-0.09,0.016l-0.088,0.016l-0.089,0.016l-0.089,0.016l-0.053,0.009l-0.035,0.006l-0.088,0.013l-0.088,0.013l-0.088,0.013l-0.087,0.013l-0.088,0.011l-0.086,0.012l-0.087,0.01l-0.086,0.01l-0.085,0.009l-0.085,0.009l-0.075,0.007l-0.009,0l-0.043,0.004l-0.042,0.003l-0.042,0.002l-0.042,0.003l-0.041,0.002l-0.042,0.002l-0.041,0.002l-0.042,0.001l-0.041,0.002l-0.041,0.001l-0.041,0l-0.041,0.001l-0.04,0l-0.041,0l-0.04,0l-0.041,-0.001l-0.04,-0.001l-0.04,-0.001l-0.04,-0.002l-0.04,-0.002l-0.039,-0.003l-0.04,-0.002l-0.039,-0.003l-0.04,-0.004l-0.039,-0.004l-0.039,-0.004l-0.039,-0.005l-0.011,-0.002l-0.028,-0.004l-0.039,-0.006l-0.039,-0.007l-0.039,-0.007l-0.038,-0.007l-0.039,-0.009l-0.038,-0.008l-0.039,-0.01l-0.038,-0.01l-0.038,-0.01l-0.038,-0.011l-0.038,-0.012l-0.038,-0.013l-0.038,-0.013l-0.037,-0.015l-0.038,-0.015l-0.037,-0.015l-0.038,-0.017l-0.037,-0.018l-0.037,-0.018l-0.036,-0.02l-0.037,-0.02l-0.036,-0.022l-0.036,-0.022l-0.035,-0.024l-0.035,-0.024l-0.035,-0.026l-0.034,-0.027l-0.033,-0.028l-0.033,-0.029l-0.032,-0.031l-0.031,-0.031l-0.031,-0.033l-0.027,-0.031l-0.017,-0.02l-0.014,-0.017l-0.014,-0.018l-0.013,-0.018l-0.014,-0.018l-0.013,-0.018l-0.013,-0.019l-0.012,-0.019l-0.013,-0.019l-0.012,-0.02l-0.011,-0.019l-0.012,-0.02l-0.011,-0.02l-0.01,-0.02l-0.011,-0.02l-0.01,-0.02l-0.01,-0.021l-0.009,-0.021l-0.009,-0.021l-0.009,-0.021l-0.009,-0.021l-0.008,-0.021l-0.008,-0.021l-0.007,-0.022l-0.007,-0.021l-0.007,-0.022l-0.006,-0.022l-0.007,-0.022l-0.005,-0.022l-0.006,-0.022l-0.005,-0.022l-0.005,-0.022l-0.005,-0.022l-0.004,-0.024l-0.007,-0.042l-0.006,-0.043l-0.006,-0.049l-0.005,-0.048l-0.005,-0.047l-0.004,-0.047l-0.003,-0.046l-0.003,-0.047l-0.002,-0.046l-0.002,-0.047l-0.001,-0.046l-0.001,-0.046l0,-0.046l0.001,-0.045l0.001,-0.046l0.001,-0.045l0.002,-0.045l0.003,-0.045l0.002,-0.028l0.001,-0.017l0.004,-0.044l0.005,-0.045l0.005,-0.044l0.006,-0.044l0.007,-0.044l0.006,-0.043l0.008,-0.043l0.008,-0.043l0.008,-0.043l0.009,-0.043l0.01,-0.042l0.01,-0.042l0.01,-0.042l0.011,-0.042l0.012,-0.041l0.012,-0.041l0.012,-0.041l0.013,-0.041l0.014,-0.04l0.014,-0.04l0.014,-0.04l0.015,-0.04l0.016,-0.039l0.016,-0.039l0.016,-0.039l0.017,-0.038l0.017,-0.038l0.018,-0.038l0.019,-0.037l0.018,-0.038l0.02,-0.037l0.019,-0.036l0.02,-0.037l0.021,-0.036l0.021,-0.035l0.021,-0.036l0.022,-0.035l0.022,-0.034l0.023,-0.035l0.023,-0.034l0.023,-0.034l0.024,-0.033l0.025,-0.033l0.024,-0.033l0.025,-0.033l0.026,-0.032l0.026,-0.032l0.026,-0.031l0.026,-0.031l0.027,-0.031l0.028,-0.031l0.027,-0.03l0.028,-0.03l0.029,-0.029l0.028,-0.03l0.029,-0.028l0.03,-0.029l0.021,-0.021l0.008,-0.007l0.031,-0.028l0.03,-0.027l0.031,-0.027l0.031,-0.026l0.032,-0.027l0.032,-0.026l0.032,-0.025l0.032,-0.025l0.033,-0.025l0.033,-0.025l0.033,-0.024l0.034,-0.024l0.033,-0.024l0.034,-0.023l0.035,-0.023l0.034,-0.022l0.035,-0.023l0.035,-0.022l0.036,-0.021l0.035,-0.022l0.036,-0.021l0.036,-0.02l0.037,-0.021l0.036,-0.02l0.037,-0.02l0.037,-0.019l0.038,-0.019l0.037,-0.019l0.038,-0.018l0.038,-0.019l0.039,-0.018l0.038,-0.017l0.039,-0.017l0.039,-0.017l0.039,-0.017l0.039,-0.016l0.04,-0.016l0.039,-0.016l0.04,-0.016l0.041,-0.015l0.04,-0.015l0.041,-0.014l0.04,-0.014l0.041,-0.014l0.042,-0.014l0.041,-0.013l0.041,-0.013l0.042,-0.013l0.042,-0.013l0.042,-0.012l0.043,-0.012l0.042,-0.011l0.01,-0.003l0.033,-0.008l0.043,-0.011l0.043,-0.01l0.043,-0.01l0.044,-0.01l0.044,-0.009l0.043,-0.009l0.044,-0.009l0.044,-0.009l0.045,-0.008l0.044,-0.008l0.045,-0.008l0.045,-0.007l0.045,-0.007l0.045,-0.007l0.045,-0.006l0.045,-0.007l0.046,-0.005l0.045,-0.006l0.046,-0.006l0.046,-0.005l0.046,-0.004l0.046,-0.005l0.047,-0.004l0.046,-0.004l0.047,-0.004l0.046,-0.003l0.047,-0.003l0.047,-0.003l0.047,-0.003l0.048,-0.002l0.047,-0.002l0.047,-0.002l0.048,-0.001l0.048,-0.001l0.048,-0.001l0.047,-0.001l0.048,0l0.049,0l0.048,0Z" style="fill:#fff;"/><path d="M53.462,4.049l2.66,0l-1.474,8.59l-2.66,0l1.474,-8.59Z" style="fill:#0d0d0d;fill-rule:nonzero;"/><path d="M61.405,9.528l0.306,-1.787l4.102,0l-0.629,3.662c-0.877,0.535 -1.634,0.899 -2.27,1.093c-0.637,0.193 -1.369,0.29 -2.197,0.29c-1.02,0 -1.821,-0.174 -2.404,-0.522c-0.583,-0.347 -0.992,-0.865 -1.228,-1.552c-0.235,-0.688 -0.277,-1.477 -0.124,-2.368c0.161,-0.937 0.494,-1.753 1,-2.446c0.506,-0.693 1.163,-1.22 1.97,-1.579c0.63,-0.277 1.437,-0.416 2.421,-0.416c0.95,0 1.645,0.086 2.086,0.258c0.441,0.172 0.786,0.438 1.035,0.8c0.248,0.361 0.403,0.819 0.464,1.374l-2.639,0.457c-0.05,-0.325 -0.186,-0.573 -0.408,-0.744c-0.223,-0.172 -0.529,-0.258 -0.92,-0.258c-0.582,0 -1.081,0.202 -1.496,0.606c-0.415,0.404 -0.697,1.044 -0.848,1.919c-0.159,0.93 -0.098,1.594 0.183,1.992c0.281,0.399 0.734,0.598 1.359,0.598c0.297,0 0.588,-0.043 0.872,-0.129c0.284,-0.086 0.618,-0.232 1.001,-0.439l0.139,-0.809l-1.775,0Z" style="fill:#0d0d0d;fill-rule:nonzero;"/><path d="M1.349,3.903l2.654,0l1.176,6.475l4.143,0l0.384,2.115l-6.797,0l-1.56,-8.59Z" style="fill:#0d0d0d;fill-rule:nonzero;"/><path d="M9.347,3.903l7.113,0l0.333,1.834l-4.453,0l0.248,1.365l4.131,0l0.318,1.752l-4.131,0l0.308,1.694l4.582,0l0.354,1.945l-7.243,0l-1.56,-8.59Z" style="fill:#0d0d0d;fill-rule:nonzero;"/></svg>